<svg xmlns="http://www.w3.org/2000/svg" width="540" height="120" viewBox="-.5 -.5 54 12"><defs><path id="sc" d="M.1 .6q0 .3 .3 .3h.2q.3 0 .3 -.3v-.2q0 -.3 -.3 -.3h-.2q-.3 0 -.3 .3z" /></defs><rect x="-.5" y="-.5" width="54" height="12" fill="#202020" /><use href="#sc" transform="translate(0 0)" fill="#404040" /><use href="#sc" transform="translate(1 0)" fill="#a0a0ff" /><use href="#sc" transform="translate(2 0)" fill="#a0a0ff" /><use href="#sc" transform="translate(3 0)" fill="#404040" /><use href="#sc" transform="translate(4 0)" fill="#404040" /><use href="#sc" transform="translate(5 0)" fill="#a0a0ff" /><use href="#sc" transform="translate(6 0)" fill="#a0a0ff" /><use href="#sc" transform="translate(7 0)" fill="#404040" /><use href="#sc" transform="translate(8 0)" fill="#404040" /><use href="#sc" transform="translate(9 0)" fill="#404040" /><use href="#sc" transform="translate(10 0)" fill="#404040" /><use href="#sc" transform="translate(11 0)" fill="#a0a0ff" /><use href="#sc" transform="translate(12 0)" fill="#a0a0ff" /><use href="#sc" transform="translate(13 0)" fill="#404040" /><use href="#sc" transform="translate(14 0)" fill="#a0a0ff" /><use href="#sc" transform="translate(15 0)" fill="#404040" /><use href="#sc" transform="translate(16 0)" fill="#a0a0ff" /><use href="#sc" transform="translate(17 0)" fill="#404040" /><use href="#sc" transform="translate(18 0)" fill="#404040" /><use href="#sc" transform="translate(19 0)" fill="#404040" /><use href="#sc" transform="translate(20 0)" fill="#404040" /><use href="#sc" transform="translate(21 0)" fill="#cccccc" /><use href="#sc" transform="translate(22 0)" fill="#404040" /><use href="#sc" transform="translate(23 0)" fill="#404040" /><use href="#sc" transform="translate(24 0)" fill="#404040" /><use href="#sc" transform="translate(25 0)" fill="#404040" /><use href="#sc" transform="translate(26 0)" fill="#404040" /><use href="#sc" transform="translate(27 0)" fill="#404040" /><use href="#sc" transform="translate(28 0)" fill="#404040" /><use href="#sc" transform="translate(29 0)" fill="#404040" /><use href="#sc" transform="translate(30 0)" fill="#404040" /><use href="#sc" transform="translate(31 0)" fill="#404040" /><use href="#sc" transform="translate(32 0)" fill="#404040" /><use href="#sc" transform="translate(33 0)" fill="#404040" /><use href="#sc" transform="translate(34 0)" fill="#404040" /><use href="#sc" transform="translate(35 0)" fill="#404040" /><use href="#sc" transform="translate(36 0)" fill="#404040" /><use href="#sc" transform="translate(37 0)" fill="#404040" /><use href="#sc" transform="translate(38 0)" fill="#404040" /><use href="#sc" transform="translate(39 0)" fill="#404040" /><use href="#sc" transform="translate(40 0)" fill="#404040" /><use href="#sc" transform="translate(41 0)" fill="#404040" /><use href="#sc" transform="translate(42 0)" fill="#404040" /><use href="#sc" transform="translate(43 0)" fill="#404040" /><use href="#sc" transform="translate(44 0)" fill="#404040" /><use href="#sc" transform="translate(45 0)" fill="#404040" /><use href="#sc" transform="translate(46 0)" fill="#404040" /><use href="#sc" transform="translate(47 0)" fill="#404040" /><use href="#sc" transform="translate(48 0)" fill="#404040" /><use href="#sc" transform="translate(49 0)" fill="#404040" /><use href="#sc" transform="translate(50 0)" fill="#404040" /><use href="#sc" transform="translate(51 0)" fill="#404040" /><use href="#sc" transform="translate(52 0)" fill="#404040" /><use href="#sc" transform="translate(0 1)" fill="#a0a0ff" /><use href="#sc" transform="translate(1 1)" fill="#404040" /><use href="#sc" transform="translate(2 1)" fill="#a0a0ff" /><use href="#sc" transform="translate(3 1)" fill="#404040" /><use href="#sc" transform="translate(4 1)" fill="#a0a0ff" /><use href="#sc" transform="translate(5 1)" fill="#404040" /><use href="#sc" transform="translate(6 1)" fill="#a0a0ff" /><use href="#sc" transform="translate(7 1)" fill="#404040" /><use href="#sc" transform="translate(8 1)" fill="#404040" /><use href="#sc" transform="translate(9 1)" fill="#404040" /><use href="#sc" transform="translate(10 1)" fill="#a0a0ff" /><use href="#sc" transform="translate(11 1)" fill="#404040" /><use href="#sc" transform="translate(12 1)" fill="#a0a0ff" /><use href="#sc" transform="translate(13 1)" fill="#404040" /><use href="#sc" transform="translate(14 1)" fill="#a0a0ff" /><use href="#sc" transform="translate(15 1)" fill="#404040" /><use href="#sc" transform="translate(16 1)" fill="#a0a0ff" /><use href="#sc" transform="translate(17 1)" fill="#404040" /><use href="#sc" transform="translate(18 1)" fill="#404040" /><use href="#sc" transform="translate(19 1)" fill="#cccccc" /><use href="#sc" transform="translate(20 1)" fill="#cccccc" /><use href="#sc" transform="translate(21 1)" fill="#cccccc" /><use href="#sc" transform="translate(22 1)" fill="#cccccc" /><use href="#sc" transform="translate(23 1)" fill="#cccccc" /><use href="#sc" transform="translate(24 1)" fill="#404040" /><use href="#sc" transform="translate(25 1)" fill="#404040" /><use href="#sc" transform="translate(26 1)" fill="#404040" /><use href="#sc" transform="translate(27 1)" fill="#404040" /><use href="#sc" transform="translate(28 1)" fill="#404040" /><use href="#sc" transform="translate(29 1)" fill="#404040" /><use href="#sc" transform="translate(30 1)" fill="#404040" /><use href="#sc" transform="translate(31 1)" fill="#404040" /><use href="#sc" transform="translate(32 1)" fill="#404040" /><use href="#sc" transform="translate(33 1)" fill="#404040" /><use href="#sc" transform="translate(34 1)" fill="#404040" /><use href="#sc" transform="translate(35 1)" fill="#404040" /><use href="#sc" transform="translate(36 1)" fill="#404040" /><use href="#sc" transform="translate(37 1)" fill="#404040" /><use href="#sc" transform="translate(38 1)" fill="#404040" /><use href="#sc" transform="translate(39 1)" fill="#404040" /><use href="#sc" transform="translate(40 1)" fill="#404040" /><use href="#sc" transform="translate(41 1)" fill="#404040" /><use href="#sc" transform="translate(42 1)" fill="#404040" /><use href="#sc" transform="translate(43 1)" fill="#404040" /><use href="#sc" transform="translate(44 1)" fill="#404040" /><use href="#sc" transform="translate(45 1)" fill="#404040" /><use href="#sc" transform="translate(46 1)" fill="#404040" /><use href="#sc" transform="translate(47 1)" fill="#404040" /><use href="#sc" transform="translate(48 1)" fill="#404040" /><use href="#sc" transform="translate(49 1)" fill="#404040" /><use href="#sc" transform="translate(50 1)" fill="#404040" /><use href="#sc" transform="translate(51 1)" fill="#404040" /><use href="#sc" transform="translate(52 1)" fill="#404040" /><use href="#sc" transform="translate(0 2)" fill="#a0a0ff" /><use href="#sc" transform="translate(1 2)" fill="#404040" /><use href="#sc" transform="translate(2 2)" fill="#a0a0ff" /><use href="#sc" transform="translate(3 2)" fill="#404040" /><use href="#sc" transform="translate(4 2)" fill="#a0a0ff" /><use href="#sc" transform="translate(5 2)" fill="#a0a0ff" /><use href="#sc" transform="translate(6 2)" fill="#a0a0ff" /><use href="#sc" transform="translate(7 2)" fill="#404040" /><use href="#sc" transform="translate(8 2)" fill="#404040" /><use href="#sc" transform="translate(9 2)" fill="#404040" /><use href="#sc" transform="translate(10 2)" fill="#a0a0ff" /><use href="#sc" transform="translate(11 2)" fill="#404040" /><use href="#sc" transform="translate(12 2)" fill="#a0a0ff" /><use href="#sc" transform="translate(13 2)" fill="#404040" /><use href="#sc" transform="translate(14 2)" fill="#a0a0ff" /><use href="#sc" transform="translate(15 2)" fill="#a0a0ff" /><use href="#sc" transform="translate(16 2)" fill="#a0a0ff" /><use href="#sc" transform="translate(17 2)" fill="#404040" /><use href="#sc" transform="translate(18 2)" fill="#cccccc" /><use href="#sc" transform="translate(19 2)" fill="#cccccc" /><use href="#sc" transform="translate(20 2)" fill="#cccccc" /><use href="#sc" transform="translate(21 2)" fill="#cccccc" /><use href="#sc" transform="translate(22 2)" fill="#cccccc" /><use href="#sc" transform="translate(23 2)" fill="#cccccc" /><use href="#sc" transform="translate(24 2)" fill="#cccccc" /><use href="#sc" transform="translate(25 2)" fill="#cccccc" /><use href="#sc" transform="translate(26 2)" fill="#404040" /><use href="#sc" transform="translate(27 2)" fill="#404040" /><use href="#sc" transform="translate(28 2)" fill="#404040" /><use href="#sc" transform="translate(29 2)" fill="#ffffff" /><use href="#sc" transform="translate(30 2)" fill="#ffffff" /><use href="#sc" transform="translate(31 2)" fill="#404040" /><use href="#sc" transform="translate(32 2)" fill="#404040" /><use href="#sc" transform="translate(33 2)" fill="#ffffff" /><use href="#sc" transform="translate(34 2)" fill="#ffffff" /><use href="#sc" transform="translate(35 2)" fill="#404040" /><use href="#sc" transform="translate(36 2)" fill="#404040" /><use href="#sc" transform="translate(37 2)" fill="#404040" /><use href="#sc" transform="translate(38 2)" fill="#404040" /><use href="#sc" transform="translate(39 2)" fill="#404040" /><use href="#sc" transform="translate(40 2)" fill="#404040" /><use href="#sc" transform="translate(41 2)" fill="#404040" /><use href="#sc" transform="translate(42 2)" fill="#404040" /><use href="#sc" transform="translate(43 2)" fill="#404040" /><use href="#sc" transform="translate(44 2)" fill="#404040" /><use href="#sc" transform="translate(45 2)" fill="#404040" /><use href="#sc" transform="translate(46 2)" fill="#404040" /><use href="#sc" transform="translate(47 2)" fill="#404040" /><use href="#sc" transform="translate(48 2)" fill="#404040" /><use href="#sc" transform="translate(49 2)" fill="#404040" /><use href="#sc" transform="translate(50 2)" fill="#ffffff" /><use href="#sc" transform="translate(51 2)" fill="#404040" /><use href="#sc" transform="translate(52 2)" fill="#404040" /><use href="#sc" transform="translate(0 3)" fill="#a0a0ff" /><use href="#sc" transform="translate(1 3)" fill="#404040" /><use href="#sc" transform="translate(2 3)" fill="#a0a0ff" /><use href="#sc" transform="translate(3 3)" fill="#404040" /><use href="#sc" transform="translate(4 3)" fill="#404040" /><use href="#sc" transform="translate(5 3)" fill="#404040" /><use href="#sc" transform="translate(6 3)" fill="#a0a0ff" /><use href="#sc" transform="translate(7 3)" fill="#404040" /><use href="#sc" transform="translate(8 3)" fill="#404040" /><use href="#sc" transform="translate(9 3)" fill="#404040" /><use href="#sc" transform="translate(10 3)" fill="#a0a0ff" /><use href="#sc" transform="translate(11 3)" fill="#404040" /><use href="#sc" transform="translate(12 3)" fill="#a0a0ff" /><use href="#sc" transform="translate(13 3)" fill="#404040" /><use href="#sc" transform="translate(14 3)" fill="#404040" /><use href="#sc" transform="translate(15 3)" fill="#404040" /><use href="#sc" transform="translate(16 3)" fill="#a0a0ff" /><use href="#sc" transform="translate(17 3)" fill="#404040" /><use href="#sc" transform="translate(18 3)" fill="#404040" /><use href="#sc" transform="translate(19 3)" fill="#cccccc" /><use href="#sc" transform="translate(20 3)" fill="#cccccc" /><use href="#sc" transform="translate(21 3)" fill="#cccccc" /><use href="#sc" transform="translate(22 3)" fill="#cccccc" /><use href="#sc" transform="translate(23 3)" fill="#cccccc" /><use href="#sc" transform="translate(24 3)" fill="#cccccc" /><use href="#sc" transform="translate(25 3)" fill="#404040" /><use href="#sc" transform="translate(26 3)" fill="#404040" /><use href="#sc" transform="translate(27 3)" fill="#404040" /><use href="#sc" transform="translate(28 3)" fill="#ffffff" /><use href="#sc" transform="translate(29 3)" fill="#404040" /><use href="#sc" transform="translate(30 3)" fill="#404040" /><use href="#sc" transform="translate(31 3)" fill="#ffffff" /><use href="#sc" transform="translate(32 3)" fill="#404040" /><use href="#sc" transform="translate(33 3)" fill="#404040" /><use href="#sc" transform="translate(34 3)" fill="#ffffff" /><use href="#sc" transform="translate(35 3)" fill="#404040" /><use href="#sc" transform="translate(36 3)" fill="#404040" /><use href="#sc" transform="translate(37 3)" fill="#404040" /><use href="#sc" transform="translate(38 3)" fill="#404040" /><use href="#sc" transform="translate(39 3)" fill="#404040" /><use href="#sc" transform="translate(40 3)" fill="#404040" /><use href="#sc" transform="translate(41 3)" fill="#404040" /><use href="#sc" transform="translate(42 3)" fill="#404040" /><use href="#sc" transform="translate(43 3)" fill="#404040" /><use href="#sc" transform="translate(44 3)" fill="#404040" /><use href="#sc" transform="translate(45 3)" fill="#404040" /><use href="#sc" transform="translate(46 3)" fill="#404040" /><use href="#sc" transform="translate(47 3)" fill="#404040" /><use href="#sc" transform="translate(48 3)" fill="#404040" /><use href="#sc" transform="translate(49 3)" fill="#404040" /><use href="#sc" transform="translate(50 3)" fill="#ffffff" /><use href="#sc" transform="translate(51 3)" fill="#404040" /><use href="#sc" transform="translate(52 3)" fill="#404040" /><use href="#sc" transform="translate(0 4)" fill="#a0a0ff" /><use href="#sc" transform="translate(1 4)" fill="#a0a0ff" /><use href="#sc" transform="translate(2 4)" fill="#404040" /><use href="#sc" transform="translate(3 4)" fill="#404040" /><use href="#sc" transform="translate(4 4)" fill="#a0a0ff" /><use href="#sc" transform="translate(5 4)" fill="#a0a0ff" /><use href="#sc" transform="translate(6 4)" fill="#404040" /><use href="#sc" transform="translate(7 4)" fill="#404040" /><use href="#sc" transform="translate(8 4)" fill="#404040" /><use href="#sc" transform="translate(9 4)" fill="#404040" /><use href="#sc" transform="translate(10 4)" fill="#a0a0ff" /><use href="#sc" transform="translate(11 4)" fill="#a0a0ff" /><use href="#sc" transform="translate(12 4)" fill="#404040" /><use href="#sc" transform="translate(13 4)" fill="#404040" /><use href="#sc" transform="translate(14 4)" fill="#404040" /><use href="#sc" transform="translate(15 4)" fill="#404040" /><use href="#sc" transform="translate(16 4)" fill="#a0a0ff" /><use href="#sc" transform="translate(17 4)" fill="#404040" /><use href="#sc" transform="translate(18 4)" fill="#404040" /><use href="#sc" transform="translate(19 4)" fill="#404040" /><use href="#sc" transform="translate(20 4)" fill="#404040" /><use href="#sc" transform="translate(21 4)" fill="#404040" /><use href="#sc" transform="translate(22 4)" fill="#404040" /><use href="#sc" transform="translate(23 4)" fill="#404040" /><use href="#sc" transform="translate(24 4)" fill="#404040" /><use href="#sc" transform="translate(25 4)" fill="#404040" /><use href="#sc" transform="translate(26 4)" fill="#404040" /><use href="#sc" transform="translate(27 4)" fill="#404040" /><use href="#sc" transform="translate(28 4)" fill="#ffffff" /><use href="#sc" transform="translate(29 4)" fill="#404040" /><use href="#sc" transform="translate(30 4)" fill="#404040" /><use href="#sc" transform="translate(31 4)" fill="#404040" /><use href="#sc" transform="translate(32 4)" fill="#404040" /><use href="#sc" transform="translate(33 4)" fill="#404040" /><use href="#sc" transform="translate(34 4)" fill="#ffffff" /><use href="#sc" transform="translate(35 4)" fill="#404040" /><use href="#sc" transform="translate(36 4)" fill="#404040" /><use href="#sc" transform="translate(37 4)" fill="#404040" /><use href="#sc" transform="translate(38 4)" fill="#ffffff" /><use href="#sc" transform="translate(39 4)" fill="#ffffff" /><use href="#sc" transform="translate(40 4)" fill="#404040" /><use href="#sc" transform="translate(41 4)" fill="#404040" /><use href="#sc" transform="translate(42 4)" fill="#ffffff" /><use href="#sc" transform="translate(43 4)" fill="#404040" /><use href="#sc" transform="translate(44 4)" fill="#404040" /><use href="#sc" transform="translate(45 4)" fill="#ffffff" /><use href="#sc" transform="translate(46 4)" fill="#404040" /><use href="#sc" transform="translate(47 4)" fill="#404040" /><use href="#sc" transform="translate(48 4)" fill="#ffffff" /><use href="#sc" transform="translate(49 4)" fill="#ffffff" /><use href="#sc" transform="translate(50 4)" fill="#ffffff" /><use href="#sc" transform="translate(51 4)" fill="#404040" /><use href="#sc" transform="translate(52 4)" fill="#ffffff" /><use href="#sc" transform="translate(0 5)" fill="#404040" /><use href="#sc" transform="translate(1 5)" fill="#404040" /><use href="#sc" transform="translate(2 5)" fill="#404040" /><use href="#sc" transform="translate(3 5)" fill="#404040" /><use href="#sc" transform="translate(4 5)" fill="#404040" /><use href="#sc" transform="translate(5 5)" fill="#404040" /><use href="#sc" transform="translate(6 5)" fill="#404040" /><use href="#sc" transform="translate(7 5)" fill="#404040" /><use href="#sc" transform="translate(8 5)" fill="#404040" /><use href="#sc" transform="translate(9 5)" fill="#404040" /><use href="#sc" transform="translate(10 5)" fill="#404040" /><use href="#sc" transform="translate(11 5)" fill="#404040" /><use href="#sc" transform="translate(12 5)" fill="#404040" /><use href="#sc" transform="translate(13 5)" fill="#404040" /><use href="#sc" transform="translate(14 5)" fill="#404040" /><use href="#sc" transform="translate(15 5)" fill="#404040" /><use href="#sc" transform="translate(16 5)" fill="#404040" /><use href="#sc" transform="translate(17 5)" fill="#404040" /><use href="#sc" transform="translate(18 5)" fill="#404040" /><use href="#sc" transform="translate(19 5)" fill="#404040" /><use href="#sc" transform="translate(20 5)" fill="#404040" /><use href="#sc" transform="translate(21 5)" fill="#404040" /><use href="#sc" transform="translate(22 5)" fill="#a0ffff" /><use href="#sc" transform="translate(23 5)" fill="#404040" /><use href="#sc" transform="translate(24 5)" fill="#a0ffff" /><use href="#sc" transform="translate(25 5)" fill="#404040" /><use href="#sc" transform="translate(26 5)" fill="#404040" /><use href="#sc" transform="translate(27 5)" fill="#404040" /><use href="#sc" transform="translate(28 5)" fill="#ffffff" /><use href="#sc" transform="translate(29 5)" fill="#404040" /><use href="#sc" transform="translate(30 5)" fill="#404040" /><use href="#sc" transform="translate(31 5)" fill="#404040" /><use href="#sc" transform="translate(32 5)" fill="#404040" /><use href="#sc" transform="translate(33 5)" fill="#404040" /><use href="#sc" transform="translate(34 5)" fill="#ffffff" /><use href="#sc" transform="translate(35 5)" fill="#404040" /><use href="#sc" transform="translate(36 5)" fill="#404040" /><use href="#sc" transform="translate(37 5)" fill="#ffffff" /><use href="#sc" transform="translate(38 5)" fill="#404040" /><use href="#sc" transform="translate(39 5)" fill="#404040" /><use href="#sc" transform="translate(40 5)" fill="#ffffff" /><use href="#sc" transform="translate(41 5)" fill="#404040" /><use href="#sc" transform="translate(42 5)" fill="#ffffff" /><use href="#sc" transform="translate(43 5)" fill="#404040" /><use href="#sc" transform="translate(44 5)" fill="#404040" /><use href="#sc" transform="translate(45 5)" fill="#ffffff" /><use href="#sc" transform="translate(46 5)" fill="#404040" /><use href="#sc" transform="translate(47 5)" fill="#ffffff" /><use href="#sc" transform="translate(48 5)" fill="#404040" /><use href="#sc" transform="translate(49 5)" fill="#404040" /><use href="#sc" transform="translate(50 5)" fill="#ffffff" /><use href="#sc" transform="translate(51 5)" fill="#404040" /><use href="#sc" transform="translate(52 5)" fill="#ffffff" /><use href="#sc" transform="translate(0 6)" fill="#ffffa0" /><use href="#sc" transform="translate(1 6)" fill="#ffffa0" /><use href="#sc" transform="translate(2 6)" fill="#404040" /><use href="#sc" transform="translate(3 6)" fill="#404040" /><use href="#sc" transform="translate(4 6)" fill="#ffffa0" /><use href="#sc" transform="translate(5 6)" fill="#ffffa0" /><use href="#sc" transform="translate(6 6)" fill="#404040" /><use href="#sc" transform="translate(7 6)" fill="#404040" /><use href="#sc" transform="translate(8 6)" fill="#404040" /><use href="#sc" transform="translate(9 6)" fill="#404040" /><use href="#sc" transform="translate(10 6)" fill="#404040" /><use href="#sc" transform="translate(11 6)" fill="#ffffa0" /><use href="#sc" transform="translate(12 6)" fill="#404040" /><use href="#sc" transform="translate(13 6)" fill="#404040" /><use href="#sc" transform="translate(14 6)" fill="#ffffa0" /><use href="#sc" transform="translate(15 6)" fill="#ffffa0" /><use href="#sc" transform="translate(16 6)" fill="#404040" /><use href="#sc" transform="translate(17 6)" fill="#404040" /><use href="#sc" transform="translate(18 6)" fill="#404040" /><use href="#sc" transform="translate(19 6)" fill="#a0ffff" /><use href="#sc" transform="translate(20 6)" fill="#a0ffff" /><use href="#sc" transform="translate(21 6)" fill="#a0ffff" /><use href="#sc" transform="translate(22 6)" fill="#a0ffff" /><use href="#sc" transform="translate(23 6)" fill="#a0ffff" /><use href="#sc" transform="translate(24 6)" fill="#a0ffff" /><use href="#sc" transform="translate(25 6)" fill="#404040" /><use href="#sc" transform="translate(26 6)" fill="#404040" /><use href="#sc" transform="translate(27 6)" fill="#404040" /><use href="#sc" transform="translate(28 6)" fill="#ffffff" /><use href="#sc" transform="translate(29 6)" fill="#404040" /><use href="#sc" transform="translate(30 6)" fill="#404040" /><use href="#sc" transform="translate(31 6)" fill="#404040" /><use href="#sc" transform="translate(32 6)" fill="#404040" /><use href="#sc" transform="translate(33 6)" fill="#404040" /><use href="#sc" transform="translate(34 6)" fill="#ffffff" /><use href="#sc" transform="translate(35 6)" fill="#404040" /><use href="#sc" transform="translate(36 6)" fill="#404040" /><use href="#sc" transform="translate(37 6)" fill="#ffffff" /><use href="#sc" transform="translate(38 6)" fill="#404040" /><use href="#sc" transform="translate(39 6)" fill="#404040" /><use href="#sc" transform="translate(40 6)" fill="#ffffff" /><use href="#sc" transform="translate(41 6)" fill="#404040" /><use href="#sc" transform="translate(42 6)" fill="#ffffff" /><use href="#sc" transform="translate(43 6)" fill="#404040" /><use href="#sc" transform="translate(44 6)" fill="#404040" /><use href="#sc" transform="translate(45 6)" fill="#ffffff" /><use href="#sc" transform="translate(46 6)" fill="#404040" /><use href="#sc" transform="translate(47 6)" fill="#ffffff" /><use href="#sc" transform="translate(48 6)" fill="#404040" /><use href="#sc" transform="translate(49 6)" fill="#404040" /><use href="#sc" transform="translate(50 6)" fill="#ffffff" /><use href="#sc" transform="translate(51 6)" fill="#404040" /><use href="#sc" transform="translate(52 6)" fill="#ffffff" /><use href="#sc" transform="translate(0 7)" fill="#404040" /><use href="#sc" transform="translate(1 7)" fill="#404040" /><use href="#sc" transform="translate(2 7)" fill="#ffffa0" /><use href="#sc" transform="translate(3 7)" fill="#404040" /><use href="#sc" transform="translate(4 7)" fill="#404040" /><use href="#sc" transform="translate(5 7)" fill="#404040" /><use href="#sc" transform="translate(6 7)" fill="#ffffa0" /><use href="#sc" transform="translate(7 7)" fill="#404040" /><use href="#sc" transform="translate(8 7)" fill="#ffffff" /><use href="#sc" transform="translate(9 7)" fill="#404040" /><use href="#sc" transform="translate(10 7)" fill="#ffffa0" /><use href="#sc" transform="translate(11 7)" fill="#ffffa0" /><use href="#sc" transform="translate(12 7)" fill="#404040" /><use href="#sc" transform="translate(13 7)" fill="#404040" /><use href="#sc" transform="translate(14 7)" fill="#404040" /><use href="#sc" transform="translate(15 7)" fill="#404040" /><use href="#sc" transform="translate(16 7)" fill="#ffffa0" /><use href="#sc" transform="translate(17 7)" fill="#404040" /><use href="#sc" transform="translate(18 7)" fill="#a0ffff" /><use href="#sc" transform="translate(19 7)" fill="#a0ffff" /><use href="#sc" transform="translate(20 7)" fill="#a0ffff" /><use href="#sc" transform="translate(21 7)" fill="#a0ffff" /><use href="#sc" transform="translate(22 7)" fill="#a0ffff" /><use href="#sc" transform="translate(23 7)" fill="#a0ffff" /><use href="#sc" transform="translate(24 7)" fill="#a0ffff" /><use href="#sc" transform="translate(25 7)" fill="#a0ffff" /><use href="#sc" transform="translate(26 7)" fill="#a0ffff" /><use href="#sc" transform="translate(27 7)" fill="#404040" /><use href="#sc" transform="translate(28 7)" fill="#ffffff" /><use href="#sc" transform="translate(29 7)" fill="#404040" /><use href="#sc" transform="translate(30 7)" fill="#404040" /><use href="#sc" transform="translate(31 7)" fill="#ffffff" /><use href="#sc" transform="translate(32 7)" fill="#404040" /><use href="#sc" transform="translate(33 7)" fill="#404040" /><use href="#sc" transform="translate(34 7)" fill="#ffffff" /><use href="#sc" transform="translate(35 7)" fill="#404040" /><use href="#sc" transform="translate(36 7)" fill="#404040" /><use href="#sc" transform="translate(37 7)" fill="#ffffff" /><use href="#sc" transform="translate(38 7)" fill="#404040" /><use href="#sc" transform="translate(39 7)" fill="#404040" /><use href="#sc" transform="translate(40 7)" fill="#ffffff" /><use href="#sc" transform="translate(41 7)" fill="#404040" /><use href="#sc" transform="translate(42 7)" fill="#ffffff" /><use href="#sc" transform="translate(43 7)" fill="#404040" /><use href="#sc" transform="translate(44 7)" fill="#404040" /><use href="#sc" transform="translate(45 7)" fill="#ffffff" /><use href="#sc" transform="translate(46 7)" fill="#404040" /><use href="#sc" transform="translate(47 7)" fill="#ffffff" /><use href="#sc" transform="translate(48 7)" fill="#404040" /><use href="#sc" transform="translate(49 7)" fill="#404040" /><use href="#sc" transform="translate(50 7)" fill="#ffffff" /><use href="#sc" transform="translate(51 7)" fill="#404040" /><use href="#sc" transform="translate(52 7)" fill="#404040" /><use href="#sc" transform="translate(0 8)" fill="#404040" /><use href="#sc" transform="translate(1 8)" fill="#ffffa0" /><use href="#sc" transform="translate(2 8)" fill="#404040" /><use href="#sc" transform="translate(3 8)" fill="#404040" /><use href="#sc" transform="translate(4 8)" fill="#404040" /><use href="#sc" transform="translate(5 8)" fill="#ffffa0" /><use href="#sc" transform="translate(6 8)" fill="#404040" /><use href="#sc" transform="translate(7 8)" fill="#404040" /><use href="#sc" transform="translate(8 8)" fill="#404040" /><use href="#sc" transform="translate(9 8)" fill="#404040" /><use href="#sc" transform="translate(10 8)" fill="#404040" /><use href="#sc" transform="translate(11 8)" fill="#ffffa0" /><use href="#sc" transform="translate(12 8)" fill="#404040" /><use href="#sc" transform="translate(13 8)" fill="#404040" /><use href="#sc" transform="translate(14 8)" fill="#404040" /><use href="#sc" transform="translate(15 8)" fill="#ffffa0" /><use href="#sc" transform="translate(16 8)" fill="#404040" /><use href="#sc" transform="translate(17 8)" fill="#404040" /><use href="#sc" transform="translate(18 8)" fill="#a0ffff" /><use href="#sc" transform="translate(19 8)" fill="#a0ffff" /><use href="#sc" transform="translate(20 8)" fill="#a0ffff" /><use href="#sc" transform="translate(21 8)" fill="#a0ffff" /><use href="#sc" transform="translate(22 8)" fill="#a0ffff" /><use href="#sc" transform="translate(23 8)" fill="#a0ffff" /><use href="#sc" transform="translate(24 8)" fill="#a0ffff" /><use href="#sc" transform="translate(25 8)" fill="#a0ffff" /><use href="#sc" transform="translate(26 8)" fill="#a0ffff" /><use href="#sc" transform="translate(27 8)" fill="#404040" /><use href="#sc" transform="translate(28 8)" fill="#404040" /><use href="#sc" transform="translate(29 8)" fill="#ffffff" /><use href="#sc" transform="translate(30 8)" fill="#ffffff" /><use href="#sc" transform="translate(31 8)" fill="#404040" /><use href="#sc" transform="translate(32 8)" fill="#404040" /><use href="#sc" transform="translate(33 8)" fill="#404040" /><use href="#sc" transform="translate(34 8)" fill="#ffffff" /><use href="#sc" transform="translate(35 8)" fill="#ffffff" /><use href="#sc" transform="translate(36 8)" fill="#404040" /><use href="#sc" transform="translate(37 8)" fill="#404040" /><use href="#sc" transform="translate(38 8)" fill="#ffffff" /><use href="#sc" transform="translate(39 8)" fill="#ffffff" /><use href="#sc" transform="translate(40 8)" fill="#404040" /><use href="#sc" transform="translate(41 8)" fill="#404040" /><use href="#sc" transform="translate(42 8)" fill="#404040" /><use href="#sc" transform="translate(43 8)" fill="#ffffff" /><use href="#sc" transform="translate(44 8)" fill="#ffffff" /><use href="#sc" transform="translate(45 8)" fill="#ffffff" /><use href="#sc" transform="translate(46 8)" fill="#404040" /><use href="#sc" transform="translate(47 8)" fill="#404040" /><use href="#sc" transform="translate(48 8)" fill="#ffffff" /><use href="#sc" transform="translate(49 8)" fill="#ffffff" /><use href="#sc" transform="translate(50 8)" fill="#ffffff" /><use href="#sc" transform="translate(51 8)" fill="#404040" /><use href="#sc" transform="translate(52 8)" fill="#404040" /><use href="#sc" transform="translate(0 9)" fill="#ffffa0" /><use href="#sc" transform="translate(1 9)" fill="#404040" /><use href="#sc" transform="translate(2 9)" fill="#404040" /><use href="#sc" transform="translate(3 9)" fill="#404040" /><use href="#sc" transform="translate(4 9)" fill="#ffffa0" /><use href="#sc" transform="translate(5 9)" fill="#404040" /><use href="#sc" transform="translate(6 9)" fill="#404040" /><use href="#sc" transform="translate(7 9)" fill="#404040" /><use href="#sc" transform="translate(8 9)" fill="#ffffff" /><use href="#sc" transform="translate(9 9)" fill="#404040" /><use href="#sc" transform="translate(10 9)" fill="#404040" /><use href="#sc" transform="translate(11 9)" fill="#ffffa0" /><use href="#sc" transform="translate(12 9)" fill="#404040" /><use href="#sc" transform="translate(13 9)" fill="#404040" /><use href="#sc" transform="translate(14 9)" fill="#ffffa0" /><use href="#sc" transform="translate(15 9)" fill="#404040" /><use href="#sc" transform="translate(16 9)" fill="#404040" /><use href="#sc" transform="translate(17 9)" fill="#404040" /><use href="#sc" transform="translate(18 9)" fill="#404040" /><use href="#sc" transform="translate(19 9)" fill="#a0ffff" /><use href="#sc" transform="translate(20 9)" fill="#a0ffff" /><use href="#sc" transform="translate(21 9)" fill="#a0ffff" /><use href="#sc" transform="translate(22 9)" fill="#a0ffff" /><use href="#sc" transform="translate(23 9)" fill="#a0ffff" /><use href="#sc" transform="translate(24 9)" fill="#a0ffff" /><use href="#sc" transform="translate(25 9)" fill="#a0ffff" /><use href="#sc" transform="translate(26 9)" fill="#404040" /><use href="#sc" transform="translate(27 9)" fill="#404040" /><use href="#sc" transform="translate(28 9)" fill="#404040" /><use href="#sc" transform="translate(29 9)" fill="#404040" /><use href="#sc" transform="translate(30 9)" fill="#404040" /><use href="#sc" transform="translate(31 9)" fill="#404040" /><use href="#sc" transform="translate(32 9)" fill="#404040" /><use href="#sc" transform="translate(33 9)" fill="#404040" /><use href="#sc" transform="translate(34 9)" fill="#404040" /><use href="#sc" transform="translate(35 9)" fill="#404040" /><use href="#sc" transform="translate(36 9)" fill="#404040" /><use href="#sc" transform="translate(37 9)" fill="#404040" /><use href="#sc" transform="translate(38 9)" fill="#404040" /><use href="#sc" transform="translate(39 9)" fill="#404040" /><use href="#sc" transform="translate(40 9)" fill="#404040" /><use href="#sc" transform="translate(41 9)" fill="#404040" /><use href="#sc" transform="translate(42 9)" fill="#404040" /><use href="#sc" transform="translate(43 9)" fill="#404040" /><use href="#sc" transform="translate(44 9)" fill="#404040" /><use href="#sc" transform="translate(45 9)" fill="#404040" /><use href="#sc" transform="translate(46 9)" fill="#404040" /><use href="#sc" transform="translate(47 9)" fill="#404040" /><use href="#sc" transform="translate(48 9)" fill="#404040" /><use href="#sc" transform="translate(49 9)" fill="#404040" /><use href="#sc" transform="translate(50 9)" fill="#404040" /><use href="#sc" transform="translate(51 9)" fill="#404040" /><use href="#sc" transform="translate(52 9)" fill="#404040" /><use href="#sc" transform="translate(0 10)" fill="#ffffa0" /><use href="#sc" transform="translate(1 10)" fill="#ffffa0" /><use href="#sc" transform="translate(2 10)" fill="#ffffa0" /><use href="#sc" transform="translate(3 10)" fill="#404040" /><use href="#sc" transform="translate(4 10)" fill="#ffffa0" /><use href="#sc" transform="translate(5 10)" fill="#ffffa0" /><use href="#sc" transform="translate(6 10)" fill="#ffffa0" /><use href="#sc" transform="translate(7 10)" fill="#404040" /><use href="#sc" transform="translate(8 10)" fill="#404040" /><use href="#sc" transform="translate(9 10)" fill="#404040" /><use href="#sc" transform="translate(10 10)" fill="#ffffa0" /><use href="#sc" transform="translate(11 10)" fill="#ffffa0" /><use href="#sc" transform="translate(12 10)" fill="#ffffa0" /><use href="#sc" transform="translate(13 10)" fill="#404040" /><use href="#sc" transform="translate(14 10)" fill="#ffffa0" /><use href="#sc" transform="translate(15 10)" fill="#ffffa0" /><use href="#sc" transform="translate(16 10)" fill="#ffffa0" /><use href="#sc" transform="translate(17 10)" fill="#404040" /><use href="#sc" transform="translate(18 10)" fill="#404040" /><use href="#sc" transform="translate(19 10)" fill="#404040" /><use href="#sc" transform="translate(20 10)" fill="#404040" /><use href="#sc" transform="translate(21 10)" fill="#404040" /><use href="#sc" transform="translate(22 10)" fill="#404040" /><use href="#sc" transform="translate(23 10)" fill="#404040" /><use href="#sc" transform="translate(24 10)" fill="#404040" /><use href="#sc" transform="translate(25 10)" fill="#404040" /><use href="#sc" transform="translate(26 10)" fill="#404040" /><use href="#sc" transform="translate(27 10)" fill="#404040" /><use href="#sc" transform="translate(28 10)" fill="#404040" /><use href="#sc" transform="translate(29 10)" fill="#404040" /><use href="#sc" transform="translate(30 10)" fill="#404040" /><use href="#sc" transform="translate(31 10)" fill="#404040" /><use href="#sc" transform="translate(32 10)" fill="#404040" /><use href="#sc" transform="translate(33 10)" fill="#404040" /><use href="#sc" transform="translate(34 10)" fill="#404040" /><use href="#sc" transform="translate(35 10)" fill="#404040" /><use href="#sc" transform="translate(36 10)" fill="#404040" /><use href="#sc" transform="translate(37 10)" fill="#404040" /><use href="#sc" transform="translate(38 10)" fill="#404040" /><use href="#sc" transform="translate(39 10)" fill="#404040" /><use href="#sc" transform="translate(40 10)" fill="#404040" /><use href="#sc" transform="translate(41 10)" fill="#404040" /><use href="#sc" transform="translate(42 10)" fill="#404040" /><use href="#sc" transform="translate(43 10)" fill="#404040" /><use href="#sc" transform="translate(44 10)" fill="#404040" /><use href="#sc" transform="translate(45 10)" fill="#404040" /><use href="#sc" transform="translate(46 10)" fill="#404040" /><use href="#sc" transform="translate(47 10)" fill="#404040" /><use href="#sc" transform="translate(48 10)" fill="#404040" /><use href="#sc" transform="translate(49 10)" fill="#404040" /><use href="#sc" transform="translate(50 10)" fill="#404040" /><use href="#sc" transform="translate(51 10)" fill="#404040" /><use href="#sc" transform="translate(52 10)" fill="#404040" /></svg>